<svg width="64" height="19" viewBox="0 0 64 19" fill="none" xmlns="http://www.w3.org/2000/svg">
<path fill-rule="evenodd" clip-rule="evenodd" d="M6.4872 18.2064C6.0662 18.2064 5.82882 17.978 5.82882 17.5713V10.4242L0.349774 1.19045C0.0855259 0.733629 0.296029 0.428589 0.79616 0.428589H4.16868C4.53744 0.428589 4.77481 0.581846 4.93157 0.885412L7.93684 6.43066L10.9391 0.885412C11.0959 0.581846 11.3332 0.428589 11.702 0.428589H15.0745C15.5747 0.428589 15.7852 0.733629 15.5224 1.19045L10.0434 10.4242V18.1902" fill="black"/>
<path fill-rule="evenodd" clip-rule="evenodd" d="M59.9146 17.571V6.14333C59.9146 5.73605 60.1456 5.50797 60.5565 5.50797H63.1228C63.5338 5.50797 63.7648 5.73605 63.7648 6.14333V17.571C63.7648 17.9768 63.5338 18.2064 63.1228 18.2064H60.5565C60.1456 18.2064 59.9146 17.9768 59.9146 17.571Z" fill="black"/>
<path fill-rule="evenodd" clip-rule="evenodd" d="M23.8332 12.4937C23.8332 10.7868 22.5001 9.65571 20.7685 9.65571C19.0368 9.65571 17.7052 10.7868 17.7052 12.4937C17.7052 14.2006 19.0368 15.3301 20.7685 15.3301C22.5001 15.3301 23.8332 14.2006 23.8332 12.4937ZM13.7111 12.4937C13.7111 8.91008 16.8526 6.14301 20.7691 6.14301C24.6857 6.14301 27.8286 8.91008 27.8286 12.4937C27.8286 16.0773 24.6857 18.8414 20.7691 18.8414C16.8526 18.8414 13.7111 16.0773 13.7111 12.4937Z" fill="black"/>
<path fill-rule="evenodd" clip-rule="evenodd" d="M31.6792 18.2064V1.08211C31.6792 0.664623 31.911 0.428589 32.3207 0.428589H34.8866C35.2976 0.428589 35.5294 0.664623 35.5294 1.08211V17.5573C35.5294 17.9718 35.2976 18.2064 34.8866 18.2064" fill="black"/>
<path fill-rule="evenodd" clip-rule="evenodd" d="M52.0498 9.31832C52.0498 6.27006 50.0685 4.33818 47.2015 4.33818H43.5508V14.2955H47.2015C50.0685 14.2955 52.0498 12.3636 52.0498 9.31832ZM47.2015 0.428589C52.2317 0.428589 56.0642 4.28794 56.0642 9.31823C56.0642 14.3456 52.2317 18.2064 47.2015 18.2064H40.6839H40.0318C39.6134 18.2064 39.3798 17.9763 39.3798 17.5723V1.06272C39.3798 0.657171 39.6134 0.428589 40.0318 0.428589" fill="black"/>
<path fill-rule="evenodd" clip-rule="evenodd" d="M59.9146 2.92865V1.10313C59.9146 0.670733 60.1456 0.428589 60.5565 0.428589H63.1228C63.5338 0.428589 63.7648 0.670733 63.7648 1.10313V2.92865C63.7648 3.35948 63.5338 3.6032 63.1228 3.6032H60.5565C60.1456 3.6032 59.9146 3.35948 59.9146 2.92865Z" fill="black"/>
<path fill-rule="evenodd" clip-rule="evenodd" d="M18.8438 2.92865V1.10313C18.8438 0.670733 19.0776 0.428589 19.4936 0.428589H27.1778C27.5938 0.428589 27.8277 0.670733 27.8277 1.10313V2.92865C27.8277 3.35948 27.5938 3.6032 27.1778 3.6032H19.4936C19.0776 3.6032 18.8438 3.35948 18.8438 2.92865Z" fill="black"/>
</svg>
